<svg width="48" height="48" viewBox="0 0 48 48" fill="none" xmlns="http://www.w3.org/2000/svg">
<path d="M14 19H8C6.89543 19 6 19.8954 6 21V27C6 28.1046 6.89543 29 8 29H14C15.1046 29 16 28.1046 16 27V21C16 19.8954 15.1046 19 14 19Z" stroke="#18181A" stroke-width="2" stroke-linecap="round" stroke-linejoin="round"/>
<path d="M27 19H21C19.8954 19 19 19.8954 19 21V27C19 28.1046 19.8954 29 21 29H27C28.1046 29 29 28.1046 29 27V21C29 19.8954 28.1046 19 27 19Z" stroke="#18181A" stroke-width="2" stroke-linecap="round" stroke-linejoin="round"/>
<path d="M40 19H34C32.8954 19 32 19.8954 32 21V27C32 28.1046 32.8954 29 34 29H40C41.1046 29 42 28.1046 42 27V21C42 19.8954 41.1046 19 40 19Z" stroke="#18181A" stroke-width="2" stroke-linecap="round" stroke-linejoin="round"/>
<path d="M16 24H19" stroke="#18181A" stroke-width="2" stroke-linecap="round" stroke-linejoin="round"/>
<path d="M29 24H32" stroke="#18181A" stroke-width="2" stroke-linecap="round" stroke-linejoin="round"/>
</svg>
